PathFileType	4	(X/Y/Z)	c:/Users/goper/Files/vsCode/490R/osim_files/C07/C07_Fast_03.trc
DataRate	CameraRate	NumFrames	NumMarkers	Units                	OrigDataRate	OrigDataStartFrame	OrigNumFrames
250.00	250.00	10	36	mm	250.0	2467	3288
                Frame#	Time	LPSIS			LASIS			LTH1			LTH2			LTH3			LTH4			LLFE			LMFE			LSH1			LSH2			LSH3			LSH4			LLMAL			LMMAL			LCAL			LMTP5			LTOE			LMTP1			RPSIS			RASIS			RTH1			RTH2			RTH3			RTH4			RLFE			RMFE			RSH1			RSH2			RSH3			RSH4			RLMAL			RMMAL			RCAL			RMTP1			RTOE			RMTP5		
		X1	Y1	Z1	X2	Y2	Z2	X3	Y3	Z3	X4	Y4	Z4	X5	Y5	Z5	X6	Y6	Z6	X7	Y7	Z7	X8	Y8	Z8	X9	Y9	Z9	X10	Y10	Z10	X11	Y11	Z11	X12	Y12	Z12	X13	Y13	Z13	X14	Y14	Z14	X15	Y15	Z15	X16	Y16	Z16	X17	Y17	Z17	X18	Y18	Z18	X19	Y19	Z19	X20	Y20	Z20	X21	Y21	Z21	X22	Y22	Z22	X23	Y23	Z23	X24	Y24	Z24	X25	Y25	Z25	X26	Y26	Z26	X27	Y27	Z27	X28	Y28	Z28	X29	Y29	Z29	X30	Y30	Z30	X31	Y31	Z31	X32	Y32	Z32	X33	Y33	Z33	X34	Y34	Z34	X35	Y35	Z35	X36	Y36	Z36

2467	9.86400	0.00000	0.00000	0.00000	-2863.10498	716.00970	898.08160	0.00000	0.00000	0.00000	0.00000	0.00000	0.00000	-2805.23315	966.23712	667.69330	-2831.61499	971.61975	766.15485	0.00000	0.00000	0.00000	-2510.35303	497.05975	686.49866	-2521.72192	308.58658	688.84418	-2538.92163	266.40179	701.72986	-2486.31299	318.75952	710.11615	0.00000	0.00000	0.00000	-2554.49170	92.96451	756.00708	0.00000	0.00000	0.00000	0.00000	0.00000	0.00000	-2425.02881	35.51662	756.24951	-2381.89600	57.17895	817.36304	-2421.89648	38.63409	864.12958	-2835.19824	789.52960	905.05737	0.00000	0.00000	0.00000	0.00000	0.00000	0.00000	0.00000	0.00000	0.00000	-2962.85522	482.82980	829.80103	-2897.36987	465.86948	743.38232	0.00000	0.00000	0.00000	0.00000	0.00000	0.00000	-3104.46143	375.27515	749.86139	0.00000	0.00000	0.00000	0.00000	0.00000	0.00000	0.00000	0.00000	0.00000	0.00000	0.00000	0.00000	-3120.40552	155.55293	635.64325	-3207.53345	152.82571	581.64099	-3099.80420	38.62214	708.12518	-3132.79077	43.49726	752.63910	-3206.26660	44.58495	752.41040
2468	9.86800	0.00000	0.00000	0.00000	-2856.85083	715.78302	900.25092	0.00000	0.00000	0.00000	0.00000	0.00000	0.00000	-2800.79395	966.31250	668.99585	-2826.76392	971.69031	767.59229	0.00000	0.00000	0.00000	-2506.87256	496.70038	687.43060	-2519.56641	308.35574	689.81500	-2537.18530	266.24167	702.78723	-2482.41650	318.60452	709.97736	0.00000	0.00000	0.00000	-2553.79761	93.03204	756.44409	0.00000	0.00000	0.00000	0.00000	0.00000	0.00000	-2425.00024	35.40503	756.42938	-2381.24121	56.23290	817.53638	-2421.57202	37.93871	864.35699	-2829.37817	789.49921	906.70215	0.00000	0.00000	0.00000	0.00000	0.00000	0.00000	0.00000	0.00000	0.00000	-2956.01001	482.00943	834.02118	-2884.82178	467.53769	743.44116	0.00000	0.00000	0.00000	-2536.32690	608.62946	647.12286	-3098.81592	376.37360	753.96356	0.00000	0.00000	0.00000	0.00000	0.00000	0.00000	-3066.46826	304.73077	745.23151	-3198.19312	187.11044	665.97626	0.00000	0.00000	0.00000	-3205.21069	157.31281	584.39410	-3101.01978	39.13781	710.33081	-3132.01465	44.24271	753.55347	0.00000	0.00000	0.00000
2469	9.87200	0.00000	0.00000	0.00000	-2850.43408	715.53711	902.47656	0.00000	0.00000	0.00000	0.00000	0.00000	0.00000	-2796.27344	966.35889	670.30890	-2821.98779	971.77814	768.97412	0.00000	0.00000	0.00000	-2503.50928	496.24658	688.35535	-2517.59814	308.15610	690.77057	-2535.51953	266.16833	703.75067	-2480.27856	318.05478	710.80096	0.00000	0.00000	0.00000	-2553.29053	92.97398	757.01324	0.00000	0.00000	0.00000	0.00000	0.00000	0.00000	-2424.58105	35.26083	756.61322	-2380.55566	55.27975	817.74200	-2421.31958	37.15242	864.70105	-2823.34375	789.44812	908.43726	0.00000	0.00000	0.00000	0.00000	0.00000	0.00000	0.00000	0.00000	0.00000	-2948.80664	481.02170	838.32770	-2883.94873	463.96890	750.64392	0.00000	0.00000	0.00000	0.00000	0.00000	0.00000	-3093.03833	377.51691	758.20966	0.00000	0.00000	0.00000	0.00000	0.00000	0.00000	-3060.70874	305.91232	749.32825	-3194.79663	190.32323	669.34161	0.00000	0.00000	0.00000	-3202.42236	162.07059	587.15961	-3098.43750	40.00680	709.25598	-3131.08179	45.11393	754.52100	-3204.18945	48.95618	755.08258
2470	9.87600	0.00000	0.00000	0.00000	-2843.88354	715.26782	904.79266	0.00000	0.00000	0.00000	0.00000	0.00000	0.00000	-2791.90796	966.45129	671.60675	0.00000	0.00000	0.00000	0.00000	0.00000	0.00000	-2500.41406	495.81961	689.10925	-2515.76587	308.05286	691.66522	-2533.95020	266.09821	704.70892	-2478.29443	317.63159	711.52954	0.00000	0.00000	0.00000	-2552.72729	92.88506	757.45453	0.00000	0.00000	0.00000	0.00000	0.00000	0.00000	-2424.25000	35.07839	756.82318	-2379.94971	54.25922	818.02887	-2421.36816	36.32356	865.35449	-2817.15552	789.31873	910.15405	0.00000	0.00000	0.00000	0.00000	0.00000	0.00000	0.00000	0.00000	0.00000	-2941.42725	480.01907	842.72418	-2870.98462	465.43912	750.96942	0.00000	0.00000	0.00000	0.00000	0.00000	0.00000	-3087.11011	378.51440	762.45343	0.00000	0.00000	0.00000	0.00000	0.00000	0.00000	-3054.25952	306.90552	753.56573	-3191.01904	194.21609	672.29846	-3111.66382	162.64653	642.81842	-3199.46729	166.76363	590.02301	-3099.61401	40.41386	711.46082	-3129.94385	46.07948	755.49969	-3202.74121	51.48470	756.46704
2471	9.88000	0.00000	0.00000	0.00000	-2837.25122	714.91302	907.12500	0.00000	0.00000	0.00000	0.00000	0.00000	0.00000	-2787.54883	966.60059	672.87823	-2812.34180	972.10999	771.68115	0.00000	0.00000	0.00000	-2497.50342	495.30942	689.80804	-2514.02661	307.95163	692.52039	-2532.63501	266.13397	705.52795	-2476.67578	317.31836	712.11200	0.00000	0.00000	0.00000	-2552.16113	92.88400	757.75848	0.00000	0.00000	0.00000	0.00000	0.00000	0.00000	-2423.96948	34.88155	756.95044	-2379.44800	53.60451	818.42889	-2421.45044	35.46564	865.71704	-2811.07471	789.24030	911.90607	0.00000	0.00000	0.00000	0.00000	0.00000	0.00000	0.00000	0.00000	0.00000	-2933.46729	478.90591	847.13800	-2863.82300	464.23557	754.99701	0.00000	0.00000	0.00000	0.00000	0.00000	0.00000	-3080.21338	379.72769	767.14655	0.00000	0.00000	0.00000	0.00000	0.00000	0.00000	-3047.78979	307.99316	758.06506	-3186.66553	197.61591	676.00427	-3108.14526	165.12572	645.41565	-3196.09131	171.68161	593.03693	-3099.05151	40.80927	712.21411	-3128.58179	47.05922	756.58728	-3201.07983	54.22144	757.96954
2472	9.88400	0.00000	0.00000	0.00000	-2830.47314	714.58508	909.54541	0.00000	0.00000	0.00000	0.00000	0.00000	0.00000	-2783.13428	966.71210	674.15582	-2807.63257	972.35248	772.98987	0.00000	0.00000	0.00000	-2494.82227	494.78226	690.46155	-2511.38306	306.98904	694.13501	0.00000	0.00000	0.00000	-2475.05225	316.91373	712.66101	0.00000	0.00000	0.00000	-2551.73755	92.86395	758.08612	0.00000	0.00000	0.00000	0.00000	0.00000	0.00000	-2423.77979	34.76937	757.06659	-2378.94067	52.92551	818.66785	-2421.33154	34.77323	865.72650	-2804.82373	789.08673	913.61810	0.00000	0.00000	0.00000	0.00000	0.00000	0.00000	0.00000	0.00000	0.00000	-2925.37305	477.72226	851.57812	0.00000	0.00000	0.00000	0.00000	0.00000	0.00000	0.00000	0.00000	0.00000	-3073.84521	380.74930	771.63580	0.00000	0.00000	0.00000	0.00000	0.00000	0.00000	-3040.79053	309.00174	762.52496	-3182.39600	201.35750	679.44550	-3104.58374	167.76584	648.15631	-3192.39624	176.80272	596.21759	-3097.73120	41.69777	712.87402	-3127.03760	48.22092	757.70984	0.00000	0.00000	0.00000
2473	9.88800	0.00000	0.00000	0.00000	-2823.59546	714.21399	911.99701	0.00000	0.00000	0.00000	0.00000	0.00000	0.00000	-2778.85645	966.91992	675.42346	-2802.89795	972.57922	774.32446	0.00000	0.00000	0.00000	-2492.16699	494.16217	691.08960	-2510.89722	307.87198	693.92914	-2530.02954	266.21506	706.95514	-2473.17334	316.39151	713.20001	0.00000	0.00000	0.00000	-2551.42090	92.78828	758.49658	0.00000	0.00000	0.00000	0.00000	0.00000	0.00000	-2423.66357	34.61675	757.19623	-2378.64648	52.28654	818.87073	-2418.73315	35.15059	863.82892	-2798.46338	788.91101	915.35437	0.00000	0.00000	0.00000	0.00000	0.00000	0.00000	0.00000	0.00000	0.00000	-2916.84888	476.42142	855.98840	-2848.37842	461.91302	762.88898	0.00000	0.00000	0.00000	0.00000	0.00000	0.00000	-3066.10474	381.74759	776.56836	0.00000	0.00000	0.00000	0.00000	0.00000	0.00000	-3033.43921	309.90790	767.24854	-3177.32178	205.14282	683.22351	0.00000	0.00000	0.00000	-3188.35474	181.98412	599.56317	-3097.13379	42.02410	713.73059	-3125.50806	49.34328	759.00305	0.00000	0.00000	0.00000
2474	9.89200	0.00000	0.00000	0.00000	-2816.54272	713.75287	914.52283	0.00000	0.00000	0.00000	0.00000	0.00000	0.00000	-2774.48730	967.07587	676.67072	-2798.32373	972.88831	775.56476	0.00000	0.00000	0.00000	-2489.54736	493.63098	691.51428	-2509.57495	307.86331	694.53735	0.00000	0.00000	0.00000	-2473.23340	315.67981	714.66595	0.00000	0.00000	0.00000	-2551.19165	92.78278	758.68823	0.00000	0.00000	0.00000	-2618.46997	36.70209	795.05157	-2423.55591	34.47402	757.23059	-2378.47388	51.65841	818.99341	-2418.66626	34.87361	863.90735	-2792.05933	788.69293	917.08667	0.00000	0.00000	0.00000	0.00000	0.00000	0.00000	0.00000	0.00000	0.00000	-2907.98486	475.12265	860.24744	-2840.15747	460.65335	766.84698	0.00000	0.00000	0.00000	0.00000	0.00000	0.00000	-3058.37793	382.71671	781.24609	0.00000	0.00000	0.00000	0.00000	0.00000	0.00000	-3026.00000	311.00854	771.92004	-3172.60913	209.00754	687.02234	0.00000	0.00000	0.00000	-3184.03540	187.29102	603.10168	-3095.58691	43.15982	714.54919	-3123.96021	50.44137	760.42950	-3195.16113	63.75402	763.39093
2475	9.89600	0.00000	0.00000	0.00000	-2809.46655	713.27753	917.06256	0.00000	0.00000	0.00000	0.00000	0.00000	0.00000	-2770.23462	967.33130	677.94366	-2793.61890	973.15424	776.85498	0.00000	0.00000	0.00000	-2487.38745	493.21796	692.23474	-2508.33984	307.84662	695.02576	-2527.80176	266.36078	707.83160	-2470.41211	315.72525	713.88477	0.00000	0.00000	0.00000	-2551.03784	92.73324	758.88763	0.00000	0.00000	0.00000	-2618.37549	36.73836	795.22626	-2423.51025	34.31623	757.27393	-2378.31445	51.07846	819.05573	-2418.53247	34.60952	864.01154	-2785.61987	788.51837	918.83685	0.00000	0.00000	0.00000	0.00000	0.00000	0.00000	0.00000	0.00000	0.00000	-2898.71240	473.63574	864.37311	-2836.51416	457.24344	773.29596	0.00000	0.00000	0.00000	0.00000	0.00000	0.00000	-3050.52539	383.58493	786.03119	0.00000	0.00000	0.00000	0.00000	0.00000	0.00000	-3017.99438	311.90909	776.64777	-3167.24512	212.78664	691.11749	0.00000	0.00000	0.00000	-3179.54443	192.60910	606.95374	-3092.43140	44.40471	713.85919	-3122.22241	51.54130	762.08710	0.00000	0.00000	0.00000
2476	9.90000	0.00000	0.00000	0.00000	-2802.18652	712.77350	919.61536	0.00000	0.00000	0.00000	0.00000	0.00000	0.00000	-2766.08325	967.64673	679.19690	-2789.05688	973.48767	778.18665	0.00000	0.00000	0.00000	-2485.01343	492.90543	692.65216	-2507.08398	307.81796	695.34735	-2526.73999	266.30185	708.15930	-2470.53882	314.94382	715.24127	0.00000	0.00000	0.00000	-2550.89624	92.69565	759.01593	0.00000	0.00000	0.00000	-2618.28442	36.76902	795.32159	-2423.40039	34.14267	757.31012	-2379.14551	50.18211	820.10822	-2418.34839	34.39888	864.03717	-2779.16455	788.29578	920.52991	0.00000	0.00000	0.00000	0.00000	0.00000	0.00000	0.00000	0.00000	0.00000	-2889.24878	472.16284	868.34851	-2823.04028	458.10559	774.02905	0.00000	0.00000	0.00000	0.00000	0.00000	0.00000	-3042.56323	384.33368	790.49512	0.00000	0.00000	0.00000	0.00000	0.00000	0.00000	-3009.68384	312.78894	781.41571	-3161.70410	216.61946	695.48645	0.00000	0.00000	0.00000	-3174.84644	198.11450	610.96747	-3091.00635	45.43071	715.06525	-3120.01880	52.78331	763.75879	0.00000	0.00000	0.00000
